#!OML:ASF H:\Terrain\Patient Classification 1\Walking\liu\liu.ASF
:FULLY-SPECIFIED
:DEGREES
311
root 0.0236 16.3617 60.6167 6.50348 1.0498 1.15205
lowerback -2.97824 -2.23853 -3.25915
upperback 0.209783 -2.9195 2.4524
thorax 2.17778 -1.51193 4.21198
lowerneck -23.2657 -3.30549 -11.2128
upperneck 23.5127 -3.65291 10.8333
head 12.0085 -1.24868 5.38478
rclavicle -6.5102e-015 1.35174e-014
rhumerus -41.7784 13.3065 -86.7237
rradius 34.1341
rwrist -16.2752
rhand -28.9507 -26.0983
rfingers 7.12502
rthumb -2.30413 -56.0656
lclavicle -6.5102e-015 1.35174e-014
lhumerus -25.6797 -7.56069 86.5024
lradius 23.4091
lwrist -2.30704
lhand -11.1526 -24.7336
lfingers 7.12502
lthumb 14.8735 4.71248
rfemur -32.3076 -3.66266 21.5327
rtibia 62.5011
rfoot -13.6538 -10.5545
rtoes -13.8762
lfemur -13.3116 0.940463 -27.1232
ltibia 24.7026
lfoot -16.148 2.15171
ltoes 2.56483
312
root 0.0236 16.3522 60.6425 6.52885 1.0498 1.46818
lowerback -2.91589 -2.38999 -3.60363
upperback 0.170113 -3.11002 2.39678
thorax 2.13628 -1.60931 4.34103
lowerneck -23.8868 -3.24903 -10.5392
upperneck 24.0522 -3.5892 10.1217
head 12.3019 -1.23988 5.028
rclavicle 4.36332e-014 3.97569e-015
rhumerus -42.4205 13.3817 -86.743
rradius 33.9985
rwrist -16.4379
rhand -25.5885 -29.5088
rfingers 7.12502
rthumb 0.943196 -59.4865
lclavicle 4.36332e-014 3.97569e-015
lhumerus -24.8152 -8.66649 86.5546
lradius 24.1699
lwrist -1.23021
lhand -11.4508 -24.9738
lfingers 7.12502
lthumb 14.5862 4.49331
rfemur -33.1865 -3.37643 21.1613
rtibia 60.9617
rfoot -13.6989 -10.8145
rtoes -13.0941
lfemur -12.4316 0.98155 -27.4616
ltibia 24.2187
lfoot -16.4265 1.85043
ltoes 2.04638
313
root 0.0236 16.3483 60.6682 6.46853 1.0498 1.64091
lowerback -2.71098 -2.54199 -3.79646
upperback 0.0886368 -3.31226 2.37961
thorax 1.96827 -1.70736 4.43136
lowerneck -23.1579 -3.19267 -10.7827
upperneck 23.4796 -3.58765 10.5744
head 11.9508 -1.215 5.21647
rclavicle 9.83984e-015 -1.74931e-014
rhumerus -43.1873 13.4655 -86.77
rradius 33.9187
rwrist -16.4656
rhand -24.317 -30.9901
rfingers 7.12502
rthumb 2.17124 -60.9588
lclavicle 9.83984e-015 -1.74931e-014
lhumerus -24.0807 -9.73157 86.6008
lradius 24.8552
lwrist 0.0439008
lhand -11.5229 -25.0997
lfingers 7.12502
lthumb 14.5167 4.37245
rfemur -33.8655 -3.28352 20.9789
rtibia 59.1291
rfoot -13.7627 -10.3792
rtoes -13.0169
lfemur -11.3637 0.963657 -27.6623
ltibia 23.6185
lfoot -16.9124 1.79859
ltoes 0.504872
314
root 0.0237 16.3375 60.6939 6.41567 1.0498 1.50739
lowerback -2.59973 -2.62524 -3.70951
upperback 0.0666063 -3.43156 2.48542
thorax 1.89729 -1.76504 4.4914
lowerneck -22.836 -3.28783 -11.3093
upperneck 23.1667 -3.67504 11.0393
head 11.801 -1.2486 5.45839
rclavicle -8.15017e-015 3.18055e-015
rhumerus -43.834 13.414 -86.6488
rradius 33.7518
rwrist -16.6324
rhand -25.0613 -30.5785
rfingers 7.12502
rthumb 1.45233 -60.5533
lclavicle -8.15017e-015 3.18055e-015
lhumerus -23.2736 -10.7779 86.7035
lradius 25.6936
lwrist 1.00736
lhand -11.4547 -25.0754
lfingers 7.12502
lthumb 14.5825 4.39196
rfemur -34.5032 -3.08085 21.1563
rtibia 57.098
rfoot -14.1584 -9.75889
rtoes -17.2926
lfemur -10.2486 0.922803 -27.4871
ltibia 22.9258
lfoot -17.2193 1.38243
ltoes 2.16396
315
root 0.0237 16.3293 60.7197 6.45529 1.0498 1.56964
lowerback -2.61018 -2.73891 -3.83803
upperback -0.0256485 -3.5813 2.59871
thorax 1.83943 -1.839 4.67556
lowerneck -22.6808 -3.38483 -11.894
upperneck 23.1463 -3.69648 11.3242
head 11.7848 -1.27956 5.66597
rclavicle 2.20651e-014 7.95139e-016
rhumerus -44.494 13.4898 -86.4943
rradius 33.4662
rwrist -16.855
rhand -25.3476 -30.7656
rfingers 7.12502
rthumb 1.17582 -60.7421
lclavicle 2.20651e-014 7.95139e-016
lhumerus -22.5963 -11.5655 86.8623
lradius 26.6401
lwrist 1.69691
lhand -11.5003 -24.8756
lfingers 7.12502
lthumb 14.5385 4.59493
rfemur -35.0819 -2.82169 21.0576
rtibia 54.9387
rfoot -14.5725 -9.54331
rtoes -21.2013
lfemur -9.18833 1.04547 -27.5058
ltibia 22.1073
lfoot -17.1968 0.82729
ltoes 3.82452
316
root 0.0238 16.3374 60.7454 6.47928 1.0498 1.70776
lowerback -2.59126 -2.88962 -4.00105
upperback -0.0470222 -3.77787 2.57234
thorax 1.83747 -1.93831 4.73075
lowerneck -22.7756 -3.28933 -11.6242
upperneck 23.2495 -3.60737 11.1552
head 11.8205 -1.23481 5.57317
rclavicle 2.99668e-014 1.66979e-014
rhumerus -44.9136 13.3048 -86.4289
rradius 33.2245
rwrist -16.4735
rhand -25.1909 -31.9501
rfingers 7.12502
rthumb 1.32723 -61.9257
lclavicle 2.99668e-014 1.66979e-014
lhumerus -21.7279 -12.3207 86.6809
lradius 27.3783
lwrist 2.41131
lhand -11.444 -24.7616
lfingers 7.12502
lthumb 14.5927 4.70506
rfemur -35.5525 -2.5681 20.7986
rtibia 52.6562
rfoot -14.8509 -9.1798
rtoes -22.9745
lfemur -8.09033 1.2309 -27.616
ltibia 21.2687
lfoot -17.2154 0.581653
ltoes 3.87853
317
root 0.0238 16.34 60.7711 6.56711 1.0498 1.73941
lowerback -2.68268 -3.05676 -4.05737
upperback 0.0241692 -3.99625 2.55927
thorax 1.98996 -2.05313 4.72926
lowerneck -22.8204 -3.15469 -11.4691
upperneck 23.0395 -3.47673 11.2431
head 11.729 -1.14745 5.59315
rclavicle -4.39811e-014 1.90833e-014
rhumerus -45.3808 13.3855 -86.7089
rradius 33.2549
rwrist -17.088
rhand -26.9109 -30.6222
rfingers 7.12502
rthumb -0.33408 -60.6017
lclavicle -4.39811e-014 1.90833e-014
lhumerus -20.7363 -13.0396 86.3557
lradius 28.1728
lwrist 3.25426
lhand -11.4158 -25.0347
lfingers 7.12502
lthumb 14.6199 4.43
rfemur -36.0401 -2.36823 20.6305
rtibia 50.3168
rfoot -15.3229 -8.41375
rtoes -22.2247
lfemur -6.97171 1.14604 -27.603
ltibia 20.2454
lfoot -17.205 0.479132
ltoes 4.20079
318
root 0.0239 16.3338 60.7969 6.77706 1.0498 1.84173
lowerback -2.89011 -3.18332 -4.16578
upperback -0.0201847 -4.15468 2.54653
thorax 2.08539 -2.13466 4.75722
lowerneck -22.7546 -3.17031 -11.7088
upperneck 22.8724 -3.49798 11.5656
head 11.6672 -1.13835 5.74951
rclavicle -3.99557e-014 3.81667e-014
rhumerus -46.0976 13.5604 -87.0288
rradius 33.2123
rwrist -17.9018
rhand -30.3416 -26.559
rfingers 7.12502
rthumb -3.64732 -56.5075
lclavicle -3.99557e-014 3.81667e-014
lhumerus -19.9226 -13.6008 86.1211
lradius 28.9926
lwrist 3.91231
lhand -11.5539 -25.3177
lfingers 7.12502
lthumb 14.4869 4.15658
rfemur -36.602 -1.7502 20.2604
rtibia 47.9437
rfoot -16.0279 -8.10477
rtoes -21.3501
lfemur -5.91465 1.07502 -27.6895
ltibia 19.009
lfoot -17.0996 0.467486
ltoes 3.98942
319
root 0.0239 16.3276 60.8226 6.93614 1.0498 2.1203
lowerback -3.06701 -3.25375 -4.4105
upperback -0.0820811 -4.23149 2.42285
thorax 2.13788 -2.17448 4.75319
lowerneck -23.1545 -3.29156 -11.4765
upperneck 23.286 -3.67296 11.3207
head 11.9186 -1.22085 5.60817
rclavicle -1.16786e-014 6.36111e-015
rhumerus -46.4532 12.9989 -86.687
rradius 32.7471
rwrist -16.7455
rhand -31.1292 -25.1829
rfingers 7.12502
rthumb -4.40792 -55.117
lclavicle -1.16786e-014 6.36111e-015
lhumerus -19.1075 -14.4125 85.894
lradius 29.6906
lwrist 4.59242
lhand -11.8339 -25.3354
lfingers 7.12502
lthumb 14.217 4.15807
rfemur -37.1064 -0.694756 19.5584
rtibia 45.5427
rfoot -16.4365 -8.27739
rtoes -20.1421
lfemur -4.72336 1.12328 -27.9771
ltibia 17.6835
lfoot -17.0522 0.506118
ltoes 3.52877
320
root 0.024 16.3274 60.8484 7.12887 1.0498 2.46535
lowerback -3.27437 -3.35384 -4.75285
upperback -0.110587 -4.3426 2.33159
thorax 2.25629 -2.23525 4.83197
lowerneck -23.4912 -3.34921 -11.2902
upperneck 23.5535 -3.73282 11.064
head 12.0865 -1.25746 5.4805
rclavicle 2.4202e-014 -2.62396e-014
rhumerus -46.5579 12.4175 -86.227
rradius 32.2632
rwrist -15.7753
rhand -28.5463 -26.9339
rfingers 7.12502
rthumb -1.9135 -56.905
lclavicle 2.4202e-014 -2.62396e-014
lhumerus -18.3085 -15.3773 85.7116
lradius 30.4868
lwrist 5.50444
lhand -12.3712 -25.5318
lfingers 7.12502
lthumb 13.6992 3.99731
rfemur -37.6089 0.224084 18.7526
rtibia 43.1558
rfoot -17.101 -7.80749
rtoes -16.9848
lfemur -3.37532 1.18613 -28.3021
ltibia 16.0773
lfoot -16.7233 0.41716
ltoes 3.30014
321
root 0.024 16.3257 60.8741 7.33608 1.0498 2.77521
lowerback -3.42732 -3.48579 -5.06992
upperback -0.12634 -4.49772 2.23173
thorax 2.36111 -2.31782 4.88628
lowerneck -23.4018 -3.24946 -11.1943
upperneck 23.3252 -3.63772 11.1273
head 11.9667 -1.19782 5.49327
rclavicle -4.62174e-015 -1.03368e-014
rhumerus -46.7912 12.2578 -86.2282
rradius 31.9946
rwrist -15.7835
rhand -27.3827 -28.2133
rfingers 7.12502
rthumb -0.789756 -58.1916
lclavicle -4.62174e-015 -1.03368e-014
lhumerus -17.5262 -16.2833 85.3566
lradius 31.2961
lwrist 6.33622
lhand -12.9681 -25.8094
lfingers 7.12502
lthumb 13.1239 3.75761
rfemur -38.1374 0.923172 18.0215
rtibia 40.8123
rfoot -17.6613 -7.21932
rtoes -14.7652
lfemur -1.82682 1.28795 -28.5614
ltibia 14.0523
lfoot -16.1847 0.205696
ltoes 3.21142
322
root 0.0241 16.3206 60.8998 7.49973 1.0498 3.06096
lowerback -3.60909 -3.57853 -5.31159
upperback -0.109702 -4.60042 2.13065
thorax 2.50394 -2.37522 4.89695
lowerneck -23.2116 -3.24596 -11.2119
upperneck 23.0144 -3.63152 11.1544
head 11.8103 -1.19503 5.49121
rclavicle 4.62174e-015 -1.27222e-014
rhumerus -47.1814 11.8945 -86.066
rradius 31.7708
rwrist -15.5924
rhand -27.9988 -28.2066
rfingers 7.12502
rthumb -1.38476 -58.1819
lclavicle 4.62174e-015 -1.27222e-014
lhumerus -16.6522 -17.1843 85.0536
lradius 31.9897
lwrist 6.93272
lhand -13.4696 -25.8846
lfingers 7.12502
lthumb 12.6405 3.71294
rfemur -38.6454 1.41074 17.3549
rtibia 38.4849
rfoot -17.4536 -7.02498
rtoes -14.2369
lfemur -0.163689 1.34338 -28.7693
ltibia 11.8511
lfoot -15.6799 -0.138905
ltoes 3.26957
323
root 0.0241 16.3196 60.9256 7.73748 1.0498 3.23621
lowerback -3.91164 -3.60194 -5.37631
upperback -0.108744 -4.61191 2.0687
thorax 2.67609 -2.38561 4.84873
lowerneck -23.2457 -3.44882 -11.559
upperneck 22.9322 -3.84508 11.3768
head 11.8284 -1.29281 5.59979
rclavicle 2.86747e-014 1.59028e-015
rhumerus -47.4602 10.8376 -85.3918
rradius 31.4467
rwrist -15.8471
rhand -27.9412 -25.545
rfingers 7.12502
rthumb -1.32915 -55.5206
lclavicle 2.86747e-014 1.59028e-015
lhumerus -15.7062 -18.0205 84.8818
lradius 32.6663
lwrist 7.55919
lhand -13.5753 -25.9584
lfingers 7.12502
lthumb 12.5386 3.64539
rfemur -39.1152 2.02151 16.7069
rtibia 36.1261
rfoot -17.5156 -6.80661
rtoes -15.8399
lfemur 1.37132 1.3265 -28.8306
ltibia 9.66596
lfoot -14.9184 -0.443646
ltoes 3.48087
324
root 0.0241 16.3235 60.9513 7.98968 1.0498 3.0873
lowerback -4.25063 -3.64927 -5.18512
upperback -0.084493 -4.66744 2.09094
thorax 2.88484 -2.41674 4.7377
lowerneck -23.3537 -3.54424 -11.7946
upperneck 22.8444 -3.97209 11.7191
head 11.848 -1.32452 5.75183
rclavicle 2.11209e-014 3.97569e-015
rhumerus -47.6521 10.0265 -84.8727
rradius 31.2714
rwrist -16.6469
rhand -27.8023 -22.3827
rfingers 7.12502
rthumb -1.19494 -52.3591
lclavicle 2.11209e-014 3.97569e-015
lhumerus -14.7995 -18.4195 84.5449
lradius 33.3546
lwrist 7.99006
lhand -13.3557 -26.2864
lfingers 7.12502
lthumb 12.7503 3.30428
rfemur -39.5614 3.08249 16.257
rtibia 33.7999
rfoot -17.981 -6.84304
rtoes -19.3079
lfemur 3.02897 1.46396 -28.5575
ltibia 7.25234
lfoot -14.0099 -0.584247
ltoes 3.09914
